{"title":"[18+] Kunwara Paying Guest (2007) Hindi MTR","uid":6999556,"size":231123998,"categoryP":"video","categoryS":"movies","magnet":"?xt=urn:btih:3655ee5db718c8b741403d356338559c2ce24949&amp;dn=%5B18%2B%5D+Kunwara+Paying+Guest+%282007%29+Hindi+MTR&amp;tr=udp%3A%2F%2Ftracker.openbittorrent.com%3A80&amp;tr=udp%3A%2F%2Fopen.demonii.com%3A1337&amp;tr=udp%3A%2F%2Ftracker.coppersurfer.tk%3A6969&amp;tr=udp%3A%2F%2Fexodus.desync.com%3A6969","seeders":0,"leechers":1,"uploader":"HDvideos","files":-1,"time":1328005342,"description":"mastitorrents.com\n &lt;a href=&quot;\nhttp://mastitorrents.com/forums/index.php&quot; rel=&quot;nofollow&quot; target=&quot;_NEW&quot;&gt;\nhttp://mastitorrents.com/forums/index.php&lt;/a&gt;\n &lt;a href=&quot;\nhttp://thepiratebay.se/user/HDvideos/0/7&quot; rel=&quot;nofollow&quot; target=&quot;_NEW&quot;&gt;\nhttp://thepiratebay.se/user/HDvideos/0/7&lt;/a&gt;\n\n[18+] Kunwara Paying Guest (2007) Hindi MTR@Mastitorrents\n\nVideo\nFormat : AVC\nFormat/Info : Advanced Video Codec\nFormat profile : &lt;a class=&quot;__cf_email__&quot; href=&quot;/cdn-cgi/l/email-protection&quot; data-cfemail=&quot;9edcffedfbf2f7f0fbded2adb0ae&quot;&gt;[email&amp;#160;protected]&lt;/a&gt;&lt;script cf-hash='f9e31' type=&quot;text/javascript&quot;&gt;\n/* &lt;![CDATA[ */!function(){try{var t=&quot;currentScript&quot;in document?document.currentScript:function(){for(var t=document.getElementsByTagName(&quot;script&quot;),e=t.length;e--;)if(t[e].getAttribute(&quot;cf-hash&quot;))return t[e]}();if(t&amp;&amp;t.previousSibling){var e,r,n,i,c=t.previousSibling,a=c.getAttribute(&quot;data-cfemail&quot;);if(a){for(e=&quot;&quot;,r=parseInt(a.substr(0,2),16),n=2;a.length-n;n+=2)i=parseInt(a.substr(n,2),16)^r,e+=String.fromCharCode(i);e=document.createTextNode(e),c.parentNode.replaceChild(e,c)}}}catch(u){}}();/* ]]&gt; */&lt;/script&gt;\nFormat settings, CABAC : No\nFormat settings, ReFrames : 1 frame\nCodec ID : 7\nDuration : 1h 26mn\nBit rate : 287 Kbps\nWidth : 496 pixels\nHeight : 288 pixels\nDisplay aspect ratio : 4:3\nFrame rate mode : Constant\nFrame rate : 23.976 fps\nColor space : YUV\nChroma subsampling : 4:2:0\nBit depth : 8 bits\nScan type : Progressive\nBits/(Pixel*Frame) : 0.084\nStream size : 177 MiB (80%)\nAudio\nFormat : AAC\nFormat/Info : Advanced Audio Codec\nFormat profile : LC\nCodec ID : 10\nDuration : 1h 26mn\nBit rate : 64.3 Kbps\nChannel(s) : 2 channels\nChannel positions : Front: L R\nSampling rate : 22.05 KHz\nCompression mode : Lossy\nStream size : 39.7 MiB (18%)","torrent":{"xt":"urn:btih:3655ee5db718c8b741403d356338559c2ce24949","amp;dn":"%5B18%2B%5D+Kunwara+Paying+Guest+%282007%29+Hindi+MTR","amp;tr":["udp%3A%2F%2Ftracker.openbittorrent.com%3A80","udp%3A%2F%2Fopen.demonii.com%3A1337","udp%3A%2F%2Ftracker.coppersurfer.tk%3A6969","udp%3A%2F%2Fexodus.desync.com%3A6969"],"infoHash":"3655ee5db718c8b741403d356338559c2ce24949","infoHashBuffer":{"type":"Buffer","data":[54,85,238,93,183,24,200,183,65,64,61,53,99,56,85,156,44,226,73,73]},"announce":[],"urlList":[]}}